# ProBuilder 4.4.0
# https://unity3d.com/unity/features/worldbuilding/probuilder
# 2020/11/27 上午 11:12:01

mtllib ./weapon.mtl
o weapon

g 武器
v 0.01135373 0.03524251 0.9054738
v 0.03986615 0.05170435 0.9101357
v 0.03986615 0.01878066 0.9101357
v 0.04747397 0.03533924 -0.6110903
v 0.01194477 -0.01927548 -0.5773815
v 0.04162699 0.03533924 -0.5672253
v 0.01194477 0.08995418 -0.5773817
v 0.01194477 -0.1054517 -0.5663269
v 0.01194465 0.1761306 -0.5663276
v 0.02461612 -0.08313405 -0.6085529
v 0.01194465 -0.08264577 -0.6407723
v 0.01194465 -0.1502365 -0.7087224
v 0.01194465 0.1533242 -0.6407728
v 0.02461612 0.1538128 -0.6085532
v 0.01194477 0.2209145 -0.7087229
v 0.04654902 0.0214997 -0.663752
v 0.04654902 0.03533918 -0.663752
v 0.04654902 0.04917861 -0.663752
v 0.02596462 -0.03543823 -0.791086
v 0.01194477 -0.04588526 -0.7411706
v 0.01194465 -0.09058814 -0.7375619
v 0.01194477 -0.04561078 -0.8584583
v 0.01194477 0.1165634 -0.7411709
v 0.02596462 0.1061161 -0.7910864
v 0.01194465 0.1612663 -0.7375625
v 0.01194477 0.1162884 -0.8584585
v 0.02159047 -0.006466679 -0.8989887
v 0.01194477 -0.07642161 -0.8614683
v 0.02159047 0.07714427 -0.8989887
v 0.01194477 0.1470994 -0.861469
v 0.01194477 -0.03485154 -0.9824724
v 0.0208714 0.00527788 -1.032234
v 0.01194477 -0.05592715 -0.9824166
v 0.01194477 -0.009829395 -1.127971
v 0.0208714 0.06539924 -1.032234
v 0.01194477 0.1055287 -0.9824727
v 0.01194477 0.1266043 -0.9824166
v 0.01194477 0.08050615 -1.127972
v -0.01715881 0.01878066 0.9101357
v -0.01715881 0.05170435 0.9101357
v -0.02358466 0.03533924 -0.6110903
v -0.01773781 0.03533924 -0.5672253
v -0.0007265806 -0.08313405 -0.6085529
v -0.0007265806 0.1538128 -0.6085532
v -0.002075076 -0.03543823 -0.791086
v -0.02265972 0.0214997 -0.663752
v -0.02265972 0.03533918 -0.663752
v -0.02265972 0.04917861 -0.663752
v -0.002075195 0.1061161 -0.7910864
v 0.002298832 -0.006466679 -0.8989887
v 0.002298832 0.07714427 -0.8989887
v 0.003018022 0.00527788 -1.032234
v 0.003018022 0.06539924 -1.032234
v 0.03093046 0.01524118 -0.3595798
v 0.03415257 0.001848496 -0.4410932
v 0.03320152 -0.008748733 -0.4433344
v 0.01943946 0.03917 -0.3728751
v -0.007854283 0.03147952 -0.3846901
v 0.02368879 -0.006576382 -0.4355052
v -0.0328896 -0.06819884 -0.3623569
v 0.002440631 -0.05099501 -0.4320609
v -0.04501212 -0.0445573 -0.377924
v 0.00521934 -0.05863587 -0.4364032
v -0.005694211 -0.06043372 -0.3509529
v 0.01274192 -0.05151763 -0.4400178
v -0.09955758 0.03987815 -0.2348145
v -0.08650517 -0.06348079 -0.1944318
v -0.112051 -0.023827 -0.2195675
v -0.05646342 0.09010062 -0.2311094
v -0.008156836 0.09735713 -0.2120155
v 0.004621267 -0.005286805 -0.1745723
v -0.03803462 -0.05558514 -0.1756802
v 0.0169549 0.05773479 -0.1894502
v 0.03292781 0.03533704 0.9033272
v 0.04924375 0.01614279 0.9942271
v 0.05300385 0.03533716 0.9595373
v 0.04924375 0.05453176 0.9942268
v -0.008961916 0.03533704 0.9033272
v -0.02903783 0.03533716 0.9595373
v -0.02527773 0.01614279 0.9942271
v -0.02527773 0.05453176 0.9942268
v 0.0119853 0.08094005 -0.4246807
v 0.0466395 0.03533796 -0.4266398
v 0.0119853 -0.01026406 -0.4246805
v -0.02266902 0.03533796 -0.4266398
v 0.01135373 0.009755976 0.8561817
v 0.03342551 0.02249692 -0.4287826
v 0.01135361 0.009753682 -0.4287826
v 0.03342539 0.02249921 0.8561817
v 0.03342551 0.04798339 -0.4287826
v 0.03342539 0.04798568 0.8561817
v 0.01135373 0.002318926 0.9101359
v 0.01135361 0.06072662 -0.4287826
v 0.01135373 0.06072892 0.8561815
v 0.01135373 0.06816614 0.9101359
v 0.02968317 0.03529722 -0.5326713
v 0.01194465 0.002357967 -0.5323732
v 0.01194465 0.06823654 -0.5323732
v 0.01194477 -0.02937566 -0.6614319
v 0.01194465 0.1000539 -0.6614321
v 0.04030746 0.03533877 -0.8173511
v 0.03042823 0.03533853 -1.03252
v 0.02129078 0.03533811 -1.226696
v 0.01194477 -0.03336024 -1.123645
v 0.01194465 0.03533775 -1.397959
v 0.01194477 0.104037 -1.123646
v -0.01071829 0.02249692 -0.4287826
v -0.01071805 0.02249921 0.8561817
v -0.01071829 0.04798339 -0.4287826
v -0.01071805 0.04798568 0.8561817
v -0.005793869 0.03529722 -0.5326713
v -0.01641828 0.03533877 -0.8173511
v -0.006538928 0.03533853 -1.03252
v 0.002598524 0.03533811 -1.226696
v 0.02077913 -0.02586182 -0.3499351
v 0.0260371 -0.03197112 -0.4468766
v -0.03739929 -0.001763187 -0.3888526
v 0.001891673 -0.02334573 -0.4325559
v 0.01198304 0.03533775 1.187451
v 0.01198304 -0.02772694 0.9945045
v 0.03970963 0.03533752 1.068027
v 0.01198304 0.0111149 0.9033272
v 0.01198304 0.09840149 0.9945042
v 0.01198304 0.05955917 0.9033271
v 0.06449282 0.03533787 -0.5274275
v 0.01198518 0.09607107 -0.5171543
v 0.01198518 0.1090532 -0.5400761
v 0.05459136 0.03533793 -0.505924
v 0.01198518 0.08753935 -0.5556601
v 0.05141121 0.03533787 -0.5455661
v 0.01198518 0.08398218 -0.5137456
v 0.04815656 0.03533793 -0.5046881
v 0.0119853 0.08094005 -0.450759
v 0.04515046 0.0353379 -0.4553514
v 0.01198518 0.03533787 -0.5438848
v -0.02744067 0.03533787 -0.5455661
v 0.01198518 -0.01686364 -0.5556601
v 0.01198518 -0.03837746 -0.5400759
v 0.01198518 -0.02539521 -0.517154
v 0.01198518 -0.01330631 -0.5137456
v 0.01198518 -0.01026412 -0.4507587
v 0.0119853 -0.02792724 -0.4375706
v 0.06315255 0.03533796 -0.4402635
v 0.0119853 0.09860341 -0.4375707
v -0.03918207 0.03533796 -0.4402635
v -0.02117997 0.0353379 -0.4553514
v -0.02418619 0.03533793 -0.5046881
v -0.03062105 0.03533793 -0.505924
v -0.04052246 0.03533787 -0.5274275
v -0.01574373 0.03533752 1.068027

vt 0.9802082 0.01028305
vt 0.9848533 0.02078627
vt 0.975548 0.02095294
vt 0.8734856 0.04294814
vt 0.9001912 0.02501525
vt 0.8734874 0.0237863
vt 0.8467802 0.02497664
vt 0.9372324 0.02384396
vt 0.8097121 0.02371008
vt 0.9263598 0.04178265
vt 0.9263881 0.05663048
vt 0.9555511 0.08572487
vt 0.8204964 0.05651235
vt 0.8205416 0.04166375
vt 0.7913628 0.08560692
vt 0.8786234 0.06636274
vt 0.8732939 0.06628478
vt 0.8679963 0.06631287
vt 0.9044133 0.1218561
vt 0.9110553 0.1001142
vt 0.9302549 0.09985566
vt 0.9095435 0.1514921
vt 0.8355877 0.1000435
vt 0.8422155 0.1218255
vt 0.8163803 0.09981473
vt 0.8370807 0.1514684
vt 0.8919871 0.1688202
vt 0.9226543 0.1527749
vt 0.8546355 0.1688096
vt 0.8239694 0.1527593
vt 0.9046252 0.2050811
vt 0.8865675 0.2266248
vt 0.9134218 0.2051186
vt 0.8934015 0.2681791
vt 0.8600507 0.2266206
vt 0.8419961 0.2050722
vt 0.8331977 0.2051121
vt 0.8532143 0.2681768
vt 0.7653394 0.2571826
vt 0.7406173 0.2446447
vt 0.7380477 0.2480472
vt 0.7658061 0.2475181
vt 0.7642147 0.2378796
vt 0.7421777 0.239106
vt 0.7579994 0.1999828
vt 0.7379324 0.2157506
vt 0.759509 0.2095809
vt 0.7348233 0.2131742
vt 0.7536895 0.191301
vt 0.7309036 0.2109452
vt 0.9658459 0.4053605
vt 0.9716707 0.4335427
vt 0.9746557 0.4201053
vt 0.950445 0.3979979
vt 0.9376016 0.4021856
vt 0.9435953 0.4298769
vt 0.9587424 0.4375656
vt 0.9348732 0.4153097
vt 0.7657958 0.08524892
vt 0.7695912 0.06022159
vt 0.7651561 0.06937464
vt 0.76029 0.06041216
vt 0.8625363 0.7605041
vt 0.8761531 0.739474
vt 0.8595099 0.7207475
vt 0.964942 0.03794563
vt 0.9750009 0.3781539
vt 0.965517 0.3781539
vt 0.9745026 0.03904983
vt 0.9844849 0.3781539
vt 0.9849925 0.03876208
vt 0.966135 0.01711351
vt 0.9939687 0.3781539
vt 0.994544 0.03794563
vt 0.9943171 0.01709229
vt 0.8735121 0.008119913
vt 0.8897431 0.006013271
vt 0.857284 0.005990537
vt 0.9047676 0.06594245
vt 0.8419587 0.06572028
vt 0.8733108 0.1332199
vt 0.8733106 0.2267238
vt 0.8733069 0.3110465
vt 0.9030677 0.2662568
vt 0.8733056 0.3853643
vt 0.8435444 0.2662561
vt 0.8224773 0.2714911
vt 0.7615696 0.2710831
vt 0.8171108 0.2929155
vt 0.7320406 0.2562072
vt 0.8233784 0.2538326
vt 0.8211126 0.2358809
vt 0.8174016 0.2131774
vt 0.7617674 0.2237303
vt 0.7432436 0.2269379
vt 0.8135102 0.1902867
vt 0.8095456 0.1721071
vt 0.8016905 0.1558712
vt 0.7218608 0.2061894
vt 0.7437493 0.1809971
vt 0.7870861 0.139165
vt 0.764284 0.007426031
vt 0.7844154 0.05959178
vt 0.7647015 0.04029381
vt 0.7753705 0.08578474
vt 0.7454795 0.06040803
vt 0.7562298 0.08623216
vt 0.9035343 0.6699731
vt 0.9304872 0.6899101
vt 0.9405807 0.6792005
vt 0.8997769 0.6763519
vt 0.9343152 0.6665059
vt 0.9076654 0.6629598
vt 0.9233175 0.6925899
vt 0.8966109 0.6817268
vt 0.9086596 0.7153522
vt 0.8859028 0.6999056
vt 0.9136577 0.6523691
vt 0.8916438 0.6413706
vt 0.8775029 0.6420453
vt 0.8730299 0.6560656
vt 0.8741619 0.6636354
vt 0.8623101 0.6880507
vt 0.851401 0.695731
vt 0.8808764 0.7084386
vt 0.907231 0.7286167
vt 0.8554889 0.7085781
vt 0.8756967 0.7172322
vt 0.8935382 0.7309902

vn -2.510214E-07 6.794564E-08 1
vn 0.5528497 0.3191849 0.769726
vn 0.5528489 -0.3191851 0.7697266
vn 0.9876351 5.490911E-07 0.1567705
vn 1.971887E-06 -0.5984027 0.8011955
vn 0.974507 -0.006781727 0.2242545
vn 2.708656E-06 0.6103358 0.7921429
vn 1.276778E-06 -0.1626703 0.9866804
vn 1.588188E-06 0.1626771 0.9866793
vn 0.9784167 -0.02785655 -0.2047555
vn -4.80679E-06 0.2735028 -0.9618712
vn -9.139711E-06 0.03339796 -0.9994422
vn -5.010504E-06 -0.2735061 -0.9618703
vn 0.9784172 0.02785616 -0.2047531
vn -1.358283E-05 -0.03338096 -0.9994427
vn 0.9471046 -0.3178299 0.04446501
vn 0.999577 0 -0.02908347
vn 0.9471045 0.3178302 0.0444641
vn 0.9558409 -0.2934726 0.01555275
vn 1.366476E-06 -0.9071756 0.4207523
vn -9.643361E-07 -0.927766 0.3731624
vn 9.450428E-07 -0.9968778 -0.07895924
vn 1.192559E-06 0.9071771 0.4207491
vn 0.9558411 0.2934724 0.01555102
vn 1.446497E-06 0.9277698 0.373153
vn 2.244461E-06 0.9968773 -0.07896703
vn 0.9764485 -0.2157219 0.003505567
vn 3.676413E-06 -0.7695647 0.6385688
vn 0.9764485 0.2157222 0.003504387
vn 3.921502E-06 0.769574 0.6385576
vn 2.652116E-06 -0.8383531 0.5451276
vn 0.9775967 -0.2104704 0.002633115
vn 2.125855E-06 -0.855935 0.5170835
vn 2.561632E-06 -0.9999967 -0.00258331
vn 0.9775968 0.2104699 0.002632872
vn 2.772676E-06 0.838348 0.5451355
vn 2.258727E-06 0.8559288 0.5170937
vn 2.625681E-06 0.9999967 -0.002585178
vn -0.5528486 -0.3191855 0.7697266
vn -0.5528494 0.3191853 0.7697261
vn -0.9876351 1.830306E-07 0.1567701
vn -0.9745071 -0.00678237 0.2242541
vn -0.9784172 -0.02785748 -0.2047527
vn -0.9784175 0.02785848 -0.2047513
vn -0.9558408 -0.2934732 0.01555296
vn -0.9471039 -0.3178317 0.04446517
vn -0.999577 0 -0.02908309
vn -0.9471041 0.3178314 0.04446418
vn -0.9558407 0.2934735 0.0155516
vn -0.9764479 -0.2157249 0.003506555
vn -0.9764478 0.2157252 0.003505112
vn -0.977596 -0.2104734 0.002632921
vn -0.9775962 0.2104729 0.002632678
vn 0.9967498 0.06634943 0.04568975
vn 0.5354114 0.681614 -0.4987354
vn 0.9747905 -0.2061042 0.08546675
vn 0.5247723 0.8078743 -0.2682409
vn -0.4134568 0.7071328 -0.5735997
vn -0.5736274 0.4428998 -0.6890512
vn -0.4791445 -0.831029 -0.282509
vn -0.7918377 -0.2499509 -0.5572411
vn -0.8213085 -0.3198927 -0.4723569
vn 0.05012433 -0.9761785 -0.2110998
vn 0.5922499 -0.8008224 0.08901443
vn 0.7771518 -0.6215335 0.09864736
vn -0.7600057 0.4249866 0.4917091
vn -0.5794914 -0.2249682 0.7833129
vn -0.9853335 -0.1266262 0.1143844
vn -0.5221348 0.8520294 0.0376972
vn -0.08041285 0.6991953 0.7103941
vn 0.2084156 0.01973657 0.9778412
vn 0.3194925 -0.7232471 0.6122403
vn 0.793833 0.3253282 0.5138004
vn 0.9410049 -1.81525E-06 -0.3383929
vn 0.8849397 -0.4626391 -0.05335641
vn 0.9867643 -1.386785E-06 -0.1621613
vn 0.8849397 0.4626387 -0.05335891
vn -0.9410052 -1.815251E-06 -0.3383921
vn -0.9867644 -1.387527E-06 -0.1621607
vn -0.8849387 -0.4626409 -0.05335625
vn -0.8849388 0.4626405 -0.05335874
vn 2.860636E-07 0.3509454 0.9363959
vn 0.4514898 1.923904E-06 0.8922762
vn 2.860644E-07 -0.3509454 0.9363959
vn -0.4514897 1.946019E-06 0.8922763
vn 8.785617E-07 -0.9976501 -0.068514
vn 0.8660262 -0.4999987 9.464948E-07
vn 0 -1 1.78587E-06
vn 0.8639914 -0.4988231 -0.06851508
vn 0.8660256 0.4999998 -8.125911E-07
vn 0.8639912 0.4988233 -0.0685166
vn 9.201502E-07 -0.9034355 0.4287243
vn 5.850177E-07 1 -1.745698E-06
vn 1.15419E-06 0.9976499 -0.06851715
vn 9.031119E-07 0.9034362 0.4287226
vn 0.9513754 -0.01584331 0.307626
vn -8.16059E-07 -0.9012926 0.433211
vn 1.095608E-06 0.8722528 0.4890552
vn 4.697481E-07 -0.9402629 -0.3404492
vn -1.135225E-06 0.9402624 -0.3404506
vn 0.9977348 -6.575717E-07 -0.06727041
vn 0.9990613 -4.548268E-07 -0.0433194
vn 0.9999512 -3.535245E-07 -0.009874452
vn 2.682936E-06 -0.9688042 0.2478275
vn 6.716646E-06 -6.156925E-06 -1
vn 2.384841E-06 0.9688042 0.2478273
vn -0.8660259 -0.4999992 1.04023E-06
vn -0.8639908 -0.4988241 -0.06851508
vn -0.8660256 0.4999998 -7.322478E-07
vn -0.8639908 0.498824 -0.06851659
vn -0.9513751 -0.01584482 0.307627
vn -0.9977348 -1.017182E-06 -0.06727017
vn -0.9990612 -4.313017E-07 -0.04331985
vn -0.9999512 -3.535248E-07 -0.009873823
vn 0.9002416 -0.4217095 0.1082873
vn 0.9004818 -0.4238842 0.09723545
vn -0.7487078 0.317169 -0.5821
vn -0.6537157 0.2557704 -0.7122059
vn 3.787461E-07 -0.9988837 -0.04723701
vn 0.9817966 2.155495E-06 0.1899352
vn 1.093075E-06 -0.9212063 -0.3890745
vn 3.787461E-07 0.9988835 -0.04724226
vn 1.136797E-06 0.9212042 -0.3890794
vn 0.9898403 -2.425395E-07 -0.142184
vn 0 0.5511729 0.8343911
vn 0 0.9729614 -0.2309676
vn 0.5778366 -0.003588981 0.8161445
vn 3.86046E-07 0.2951266 -0.9554582
vn 0.4153873 4.886393E-07 -0.9096447
vn 4.58034E-07 0.6740828 0.7386557
vn 0.7037618 0.008362078 0.7103869
vn 5.265244E-07 0.8644529 -0.5027137
vn 0.9123693 -0.002417464 -0.4093611
vn -0.4153851 5.067355E-07 -0.9096457
vn 3.860468E-07 -0.2951281 -0.9554577
vn 0 -0.972963 -0.2309612
vn 2.118259E-07 -0.5604352 0.8281983
vn -2.83713E-09 -0.6619924 0.7495105
vn -2.73605E-06 -0.8693461 -0.4942037
vn -1.126484E-06 -0.999726 -0.02340789
vn 0.9999956 0.0004475669 0.002924615
vn 8.714082E-07 0.9998313 -0.0183653
vn -0.9999956 0.0004475673 0.002924721
vn -0.9123704 -0.002416675 -0.4093585
vn -0.7037605 0.008362398 0.7103881
vn -0.5778368 -0.0035889 0.8161445
vn -0.9898399 -2.425395E-07 -0.1421867
vn -0.9817965 2.165914E-06 0.1899357

usemtl c_macho_01
f 3/3/3 2/2/2 1/1/1
f 6/6/6 5/5/5 4/4/4
f 6/6/6 4/4/4 7/7/7
f 5/5/5 8/8/8 4/4/4
f 7/7/7 4/4/4 9/9/9
f 12/12/12 11/11/11 10/10/10
f 15/15/15 14/14/14 13/13/13
f 17/17/17 4/4/4 16/16/16
f 18/18/18 4/4/4 17/17/17
f 16/16/16 20/20/20 19/19/19
f 21/21/21 19/19/19 20/20/20
f 21/21/21 22/22/22 19/19/19
f 24/24/24 23/23/23 18/18/18
f 25/25/25 23/23/23 24/24/24
f 25/25/25 24/24/24 26/26/26
f 28/28/28 27/27/27 22/22/22
f 30/30/30 26/26/26 29/29/29
f 33/33/33 32/32/32 31/31/31
f 33/33/33 34/34/34 32/32/32
f 37/37/37 36/36/36 35/35/35
f 37/37/37 35/35/35 38/38/38
f 40/2/40 39/3/39 1/1/1
f 5/5/5 42/6/42 41/4/41
f 41/4/41 42/6/42 7/7/7
f 5/5/5 41/4/41 8/8/8
f 7/7/7 9/9/9 41/4/41
f 11/11/11 12/12/12 43/10/43
f 44/14/44 15/15/15 13/13/13
f 20/20/20 46/16/46 45/19/45
f 45/19/45 21/21/21 20/20/20
f 22/22/22 21/21/21 45/19/45
f 41/4/41 47/17/47 46/16/46
f 41/4/41 48/18/48 47/17/47
f 23/23/23 49/24/49 48/18/48
f 23/23/23 25/25/25 49/24/49
f 49/24/49 25/25/25 26/26/26
f 50/27/50 28/28/28 22/22/22
f 26/26/26 30/30/30 51/29/51
f 52/32/52 33/33/33 31/31/31
f 34/34/34 33/33/33 52/32/52
f 36/36/36 37/37/37 53/35/53
f 53/35/53 37/37/37 38/38/38
f 56/41/56 55/40/55 54/39/54
f 57/42/57 54/39/54 55/40/55
f 57/42/57 55/40/55 58/43/58
f 59/44/59 58/43/58 55/40/55
f 62/47/62 61/46/61 60/45/60
f 63/48/63 60/45/60 61/46/61
f 60/45/60 63/48/63 64/49/64
f 65/50/65 64/49/64 63/48/63
f 68/53/68 67/52/67 66/51/66
f 70/55/70 69/54/69 66/51/66
f 72/57/72 71/56/71 67/52/67
f 73/58/73 70/55/70 71/56/71
f 76/61/76 75/60/75 74/59/74
f 74/59/74 77/62/77 76/61/76
f 80/60/80 79/61/79 78/59/78
f 81/62/81 78/59/78 79/61/79
f 84/65/84 83/64/83 82/63/82
f 82/63/82 85/64/85 84/65/84
f 86/66/86 88/68/88 87/67/87
f 87/67/87 89/69/89 86/66/86
f 89/69/89 87/67/87 90/70/90
f 90/70/90 91/71/91 89/69/89
f 3/3/3 92/72/92 86/66/86
f 86/66/86 89/69/89 3/3/3
f 91/71/91 90/70/90 93/73/93
f 93/73/93 94/74/94 91/71/91
f 91/71/91 94/74/94 95/75/95
f 95/75/95 2/2/2 91/71/91
f 89/69/89 91/71/91 2/2/2
f 2/2/2 3/3/3 89/69/89
f 40/2/40 1/1/1 2/2/2
f 2/2/2 95/75/95 40/2/40
f 39/3/39 92/72/92 3/3/3
f 3/3/3 1/1/1 39/3/39
f 96/76/96 97/77/97 5/5/5
f 5/5/5 6/6/6 96/76/96
f 98/78/98 96/76/96 6/6/6
f 6/6/6 7/7/7 98/78/98
f 10/10/10 4/4/4 8/8/8
f 8/8/8 12/12/12 10/10/10
f 10/10/10 11/11/11 99/79/99
f 99/79/99 4/4/4 10/10/10
f 15/15/15 9/9/9 4/4/4
f 4/4/4 14/14/14 15/15/15
f 100/80/100 13/13/13 14/14/14
f 14/14/14 4/4/4 100/80/100
f 20/20/20 16/16/16 4/4/4
f 4/4/4 99/79/99 20/20/20
f 100/80/100 4/4/4 18/18/18
f 18/18/18 23/23/23 100/80/100
f 101/81/101 17/17/17 16/16/16
f 16/16/16 19/19/19 101/81/101
f 18/18/18 17/17/17 101/81/101
f 101/81/101 24/24/24 18/18/18
f 19/19/19 22/22/22 27/27/27
f 27/27/27 101/81/101 19/19/19
f 27/27/27 28/28/28 31/31/31
f 31/31/31 32/32/32 27/27/27
f 29/29/29 26/26/26 24/24/24
f 24/24/24 101/81/101 29/29/29
f 36/36/36 30/30/30 29/29/29
f 29/29/29 35/35/35 36/36/36
f 32/32/32 102/82/102 101/81/101
f 101/81/101 27/27/27 32/32/32
f 35/35/35 29/29/29 101/81/101
f 101/81/101 102/82/102 35/35/35
f 103/83/103 102/82/102 32/32/32
f 32/32/32 34/34/34 103/83/103
f 105/85/105 103/83/103 34/34/34
f 34/34/34 104/84/104 105/85/105
f 103/83/103 105/85/105 106/86/106
f 106/86/106 38/38/38 103/83/103
f 35/35/35 102/82/102 103/83/103
f 103/83/103 38/38/38 35/35/35
f 107/67/107 88/68/88 86/66/86
f 86/66/86 108/69/108 107/67/107
f 39/3/39 108/69/108 86/66/86
f 86/66/86 92/72/92 39/3/39
f 109/70/109 107/67/107 108/69/108
f 108/69/108 110/71/110 109/70/109
f 108/69/108 39/3/39 40/2/40
f 40/2/40 110/71/110 108/69/108
f 110/71/110 40/2/40 95/75/95
f 95/75/95 94/74/94 110/71/110
f 93/73/93 109/70/109 110/71/110
f 110/71/110 94/74/94 93/73/93
f 5/5/5 97/77/97 111/76/111
f 111/76/111 42/6/42 5/5/5
f 42/6/42 111/76/111 98/78/98
f 98/78/98 7/7/7 42/6/42
f 12/12/12 8/8/8 41/4/41
f 41/4/41 43/10/43 12/12/12
f 99/79/99 11/11/11 43/10/43
f 43/10/43 41/4/41 99/79/99
f 44/14/44 41/4/41 9/9/9
f 9/9/9 15/15/15 44/14/44
f 44/14/44 13/13/13 100/80/100
f 100/80/100 41/4/41 44/14/44
f 20/20/20 99/79/99 41/4/41
f 41/4/41 46/16/46 20/20/20
f 48/18/48 41/4/41 100/80/100
f 100/80/100 23/23/23 48/18/48
f 112/81/112 45/19/45 46/16/46
f 46/16/46 47/17/47 112/81/112
f 112/81/112 47/17/47 48/18/48
f 48/18/48 49/24/49 112/81/112
f 50/27/50 22/22/22 45/19/45
f 45/19/45 112/81/112 50/27/50
f 31/31/31 28/28/28 50/27/50
f 50/27/50 52/32/52 31/31/31
f 49/24/49 26/26/26 51/29/51
f 51/29/51 112/81/112 49/24/49
f 51/29/51 30/30/30 36/36/36
f 36/36/36 53/35/53 51/29/51
f 52/32/52 50/27/50 112/81/112
f 112/81/112 113/82/113 52/32/52
f 53/35/53 113/82/113 112/81/112
f 112/81/112 51/29/51 53/35/53
f 52/32/52 113/82/113 114/83/114
f 114/83/114 34/34/34 52/32/52
f 105/85/105 104/84/104 34/34/34
f 34/34/34 114/83/114 105/85/105
f 106/86/106 105/85/105 114/83/114
f 114/83/114 38/38/38 106/86/106
f 114/83/114 113/82/113 53/35/53
f 53/35/53 38/38/38 114/83/114
f 73/87/73 71/89/71 115/88/115
f 115/88/115 54/39/54 73/87/73
f 54/39/54 115/88/115 116/90/116
f 116/90/116 56/41/56 54/39/54
f 70/91/70 73/87/73 54/39/54
f 54/39/54 57/42/57 70/91/70
f 69/92/69 70/91/70 57/42/57
f 57/42/57 58/43/58 69/92/69
f 66/93/66 69/92/69 58/43/58
f 58/43/58 117/94/117 66/93/66
f 117/94/117 58/43/58 59/44/59
f 59/44/59 118/95/118 117/94/117
f 68/96/68 66/93/66 117/94/117
f 117/94/117 62/47/62 68/96/68
f 62/47/62 117/94/117 118/95/118
f 118/95/118 61/46/61 62/47/62
f 67/97/67 68/96/68 62/47/62
f 62/47/62 60/45/60 67/97/67
f 72/98/72 67/97/67 60/45/60
f 60/45/60 64/49/64 72/98/72
f 64/49/64 65/50/65 116/99/116
f 116/99/116 115/100/115 64/49/64
f 72/98/72 64/49/64 115/100/115
f 115/100/115 71/101/71 72/98/72
f 71/56/71 70/55/70 66/51/66
f 66/51/66 67/52/67 71/56/71
f 119/102/1 120/103/119 75/60/75
f 75/60/75 121/104/120 119/102/1
f 74/59/74 75/60/75 120/103/119
f 120/103/119 122/105/121 74/59/74
f 121/104/120 75/60/75 76/61/76
f 76/61/76 77/62/77 121/104/120
f 119/102/1 121/104/120 77/62/77
f 77/62/77 123/106/122 119/102/1
f 123/106/122 77/62/77 74/59/74
f 74/59/74 124/107/123 123/106/122
f 125/108/124 127/110/126 126/109/125
f 126/109/125 128/111/127 125/108/124
f 129/112/128 127/110/126 125/108/124
f 125/108/124 130/113/129 129/112/128
f 128/111/127 126/109/125 131/114/130
f 131/114/130 132/115/131 128/111/127
f 132/115/131 131/114/130 133/116/132
f 133/116/132 134/117/133 132/115/131
f 129/112/128 130/113/129 135/118/105
f 135/118/105 136/113/134 129/112/128
f 136/113/134 135/118/105 130/113/129
f 130/113/129 137/119/135 136/113/134
f 137/119/135 130/113/129 125/108/124
f 125/108/124 138/120/136 137/119/135
f 139/121/137 138/120/136 125/108/124
f 125/108/124 128/111/127 139/121/137
f 139/121/137 128/111/127 132/115/131
f 132/115/131 140/122/138 139/121/137
f 141/123/139 140/122/138 132/115/131
f 132/115/131 134/117/133 141/123/139
f 142/124/140 141/123/139 134/117/133
f 134/117/133 143/125/141 142/124/140
f 143/125/141 134/117/133 133/116/132
f 133/116/132 144/126/142 143/125/141
f 84/127/84 142/124/140 143/125/141
f 143/125/141 83/128/83 84/127/84
f 143/125/141 144/126/142 82/129/82
f 82/129/82 83/128/83 143/125/141
f 145/125/143 85/128/85 82/129/82
f 82/129/82 144/126/142 145/125/143
f 84/127/84 85/128/85 145/125/143
f 145/125/143 142/124/140 84/127/84
f 145/125/143 144/126/142 133/116/132
f 133/116/132 146/117/144 145/125/143
f 142/124/140 145/125/143 146/117/144
f 146/117/144 141/123/139 142/124/140
f 147/115/145 146/117/144 133/116/132
f 133/116/132 131/114/130 147/115/145
f 141/123/139 146/117/144 147/115/145
f 147/115/145 140/122/138 141/123/139
f 139/121/137 140/122/138 147/115/145
f 147/115/145 148/111/146 139/121/137
f 148/111/146 147/115/145 131/114/130
f 131/114/130 126/109/125 148/111/146
f 139/121/137 148/111/146 149/108/147
f 149/108/147 138/120/136 139/121/137
f 149/108/147 148/111/146 126/109/125
f 126/109/125 127/110/126 149/108/147
f 137/119/135 138/120/136 149/108/147
f 149/108/147 136/113/134 137/119/135
f 149/108/147 127/110/126 129/112/128
f 129/112/128 136/113/134 149/108/147
f 80/60/80 120/103/119 119/102/1
f 119/102/1 150/104/148 80/60/80
f 78/59/78 122/105/121 120/103/119
f 120/103/119 80/60/80 78/59/78
f 79/61/79 80/60/80 150/104/148
f 150/104/148 81/62/81 79/61/79
f 81/62/81 150/104/148 119/102/1
f 119/102/1 123/106/122 81/62/81
f 123/106/122 124/107/123 78/59/78
f 78/59/78 81/62/81 123/106/122

